<svg version="1.1" id="Layer_1" xmlns="http://www.w3.org/2000/svg" xmlns:xlink="http://www.w3.org/1999/xlink" x="0px" y="0px"
	 width="100%" viewBox="0 0 498 498" enable-background="new 0 0 498 498" xml:space="preserve">
<path fill="#FDFEFD" opacity="1.000000" stroke="none" 
	d="
M228.000000,499.000000 
	C152.000015,499.000000 76.500038,499.000000 1.000041,499.000000 
	C1.000027,333.000061 1.000027,167.000122 1.000013,1.000130 
	C166.999893,1.000086 332.999786,1.000086 498.999756,1.000043 
	C498.999847,166.999863 498.999847,332.999725 498.999939,498.999817 
	C408.833344,499.000000 318.666656,499.000000 228.000000,499.000000 
M171.188080,361.686584 
	C173.444458,363.791840 175.700836,365.897095 178.152618,368.921661 
	C178.119202,375.608398 178.085785,382.295105 177.473618,389.497772 
	C177.795181,392.006927 178.116745,394.516083 178.742767,397.646210 
	C178.750778,398.103210 178.758789,398.560211 178.492401,399.225739 
	C178.622543,399.481750 178.752701,399.737762 179.189117,400.677185 
	C185.053284,419.425018 195.553268,427.267761 215.113922,427.324860 
	C235.064880,427.383087 255.016144,427.326599 274.967285,427.325226 
	C296.766052,427.323730 307.029785,419.705475 313.430573,398.828033 
	C313.491180,398.731506 313.625854,398.596313 313.599213,398.545288 
	C313.499634,398.354431 313.347229,398.191132 313.104950,397.214935 
	C313.236328,396.149384 313.367676,395.083801 314.180573,393.735443 
	C314.790314,388.990448 315.820984,384.252808 315.903687,379.498627 
	C316.007935,373.506104 315.252502,367.503265 315.031769,361.498871 
	C314.878784,357.337830 315.002411,353.166656 315.855072,349.000000 
	C318.050201,349.335449 320.821686,348.947693 322.327667,350.147888 
	C326.167938,353.208405 330.252289,354.433655 334.991882,354.737091 
	C334.199005,356.123016 333.409027,357.510559 332.612457,358.894379 
	C331.797089,360.310883 329.940796,362.168976 330.326416,363.064911 
	C332.615265,368.382568 331.771179,373.062347 330.656464,378.700348 
	C329.762970,383.219238 334.556519,388.862549 337.016876,394.742310 
	C337.002930,395.497650 336.988953,396.252960 336.553711,397.272888 
	C336.823517,397.856598 337.093323,398.440308 337.744690,399.654419 
	C337.924316,400.862640 338.103943,402.070831 338.232971,403.936340 
	C338.470886,404.288391 338.708832,404.640472 339.360687,405.497498 
	C339.607819,406.319061 339.854980,407.140594 339.533661,408.397522 
	C339.666595,415.777496 341.781616,418.456726 348.418976,419.170166 
	C348.615997,419.437439 348.813019,419.704712 349.125854,420.700470 
	C349.930908,421.073822 350.735962,421.447144 352.194427,421.957153 
	C356.122742,423.564850 360.051086,425.172577 364.145905,427.223633 
	C364.752014,427.186523 365.358124,427.149414 366.805939,426.981873 
	C368.198761,427.190186 369.591553,427.398499 371.317902,428.276276 
	C376.572845,428.517517 381.826782,428.936890 387.082916,428.966766 
	C403.139191,429.058075 419.196655,429.042175 435.252686,428.932678 
	C436.843414,428.921844 438.427826,427.983124 440.733826,427.172699 
	C441.505524,427.163879 442.277252,427.155060 443.304718,427.534546 
	C443.877045,427.291809 444.449341,427.049072 445.727875,426.378571 
	C456.534332,424.022675 464.839874,418.132324 468.788635,407.749878 
	C470.921234,402.142639 472.052734,395.824371 472.109039,389.812592 
	C472.419098,356.693329 472.279083,323.569641 472.244019,290.447540 
	C472.235016,281.965668 472.047028,273.484039 472.137451,264.093018 
	C472.137451,260.479279 472.137451,256.865509 472.137451,252.857407 
	C449.990265,257.881805 437.655334,243.045425 423.972565,230.098587 
	C419.179779,235.597000 414.632996,240.813156 409.481476,246.321991 
	C403.104523,253.460114 396.727600,260.598236 389.799164,268.023041 
	C383.038574,275.613434 376.277985,283.203796 369.029205,291.006104 
	C368.602539,291.312103 368.175903,291.618103 367.049042,291.968445 
	C364.132660,293.996002 361.399170,296.390228 358.253967,297.959015 
	C354.246979,299.957672 349.327179,300.604309 349.100311,306.600647 
	C349.069031,307.427368 347.903076,308.153595 347.492981,309.033722 
	C345.949524,312.346466 344.501434,315.703613 342.866699,319.596161 
	C342.305359,320.086914 341.744019,320.577637 340.450592,320.928101 
	C339.281769,319.277832 338.447510,316.759735 336.876038,316.153870 
	C333.356781,314.796997 329.501862,314.122894 325.723999,313.684418 
	C322.727112,313.336609 319.641632,313.751984 316.816315,313.206604 
	C317.891724,312.142914 318.967163,311.079254 320.774841,310.007538 
	C321.411530,309.860077 322.225098,309.914398 322.658264,309.534729 
	C328.654572,304.278381 335.019287,299.348267 340.382355,293.502197 
	C343.162842,290.471344 344.147614,285.793152 346.155365,281.229492 
	C371.627533,253.149200 397.099670,225.068909 422.673615,196.876358 
	C432.990692,206.533722 442.778381,215.801559 452.694397,224.930023 
	C457.234741,229.109772 462.515106,231.424606 468.715302,228.955429 
	C475.050049,226.432648 476.580261,220.977478 476.993469,214.792694 
	C477.715271,203.990341 478.612976,193.198990 479.516968,182.409729 
	C481.978577,153.030273 484.584869,123.662483 486.917603,94.272911 
	C487.833405,82.735298 481.031982,76.737419 469.650696,78.581444 
	C429.357758,85.109795 389.070953,91.675812 348.783325,98.236877 
	C342.715210,99.225105 337.334412,101.471786 335.443970,107.927589 
	C333.579102,114.296165 336.479828,119.195183 341.198059,123.339630 
	C349.084259,130.266815 356.857422,137.322739 364.746643,144.246429 
	C366.460144,145.750214 368.463074,146.924210 370.474243,148.350464 
	C365.047577,154.198288 360.713409,158.797363 356.456665,163.467041 
	C315.150787,208.780197 273.875000,254.120773 232.544113,299.411102 
	C225.819305,306.780151 221.712479,307.040527 214.312744,300.504242 
	C208.197052,295.102203 202.499237,289.227234 196.385742,283.822540 
	C180.619965,269.884735 159.832748,271.024261 145.527176,286.415497 
	C135.205200,297.520782 124.841652,308.587372 114.504929,319.678955 
	C103.827278,331.136383 93.216415,342.656799 82.463982,354.043549 
	C77.011604,359.817566 70.224892,360.184326 65.318832,355.280945 
	C60.346348,350.311188 60.683002,342.953461 66.185684,337.034302 
	C81.159698,320.927002 95.930183,304.623077 111.192993,288.794006 
	C123.254372,276.285156 133.601791,261.691010 150.405792,254.562958 
	C150.619507,254.472305 150.670685,253.998520 150.786575,253.698761 
	C145.022614,243.449646 135.736038,237.872772 123.263077,237.798706 
	C100.935966,237.666107 78.607002,237.732880 56.279350,237.835373 
	C34.815601,237.933899 20.915388,251.648819 20.601074,273.080597 
	C20.403168,286.574951 20.469664,300.073364 20.443869,313.570007 
	C20.395462,338.897369 20.224220,364.225555 20.369345,389.551849 
	C20.510578,414.199036 33.675766,427.210938 58.175079,427.287201 
	C78.170357,427.349487 98.168755,427.134186 118.160263,427.422821 
	C131.177948,427.610779 142.028442,423.718994 150.633408,412.921387 
	C153.124969,410.834595 156.561356,409.128265 153.846664,404.273132 
	C153.996613,403.854126 154.146561,403.435089 154.844711,402.922394 
	C154.874435,402.274811 154.904175,401.627258 154.886566,400.127289 
	C155.232254,396.760254 155.577942,393.393219 156.515442,389.504425 
	C156.326614,386.997528 156.137802,384.490631 155.752670,381.176117 
	C156.850037,378.456329 157.947403,375.736542 159.774963,373.011536 
	C162.118851,371.404236 164.278214,369.339569 166.851685,368.301331 
	C170.339096,366.894379 170.830307,364.581665 170.390091,361.346527 
	C170.390091,361.346527 170.510010,361.215454 171.188080,361.686584 
M194.047211,172.990753 
	C191.537445,175.274414 189.027695,177.558090 186.133484,179.988739 
	C185.892776,180.181870 185.805969,180.429031 185.268997,181.082214 
	C183.059753,187.038803 179.345108,192.895218 178.940750,198.971909 
	C177.965729,213.624573 178.538803,228.380249 178.278656,243.903214 
	C178.357605,245.572495 178.436554,247.241776 178.395721,249.539001 
	C178.514862,249.715683 178.633987,249.892380 178.969879,250.784286 
	C179.895844,251.099045 180.799637,251.531509 181.751129,251.710815 
	C195.193481,254.244049 206.735184,260.328888 216.347839,270.077301 
	C218.273895,272.030548 220.297058,273.888031 222.614883,276.115967 
	C227.746948,270.122864 232.473206,264.603638 237.799194,258.810883 
	C247.480087,247.986267 257.160980,237.161652 267.396393,226.086395 
	C272.484894,220.386932 277.573395,214.687469 283.271088,208.648407 
	C289.997986,201.162415 296.724884,193.676407 304.044067,185.916168 
	C305.545837,184.015625 308.633301,182.589706 305.659363,179.478088 
	C298.652039,172.146423 290.488739,167.525436 279.077637,167.929489 
	C256.515686,167.952835 233.953674,167.958160 211.391907,168.034134 
	C209.605713,168.040146 207.821167,168.536270 205.527817,168.568954 
	C205.027054,168.760223 204.526276,168.951492 203.451111,169.028351 
	C202.936050,169.266312 202.420990,169.504288 201.395416,169.674301 
	C201.263458,169.784088 201.131500,169.893890 200.341125,169.954819 
	C199.185226,170.533401 198.029327,171.112000 196.225403,171.742432 
	C195.720734,172.123947 195.216049,172.505463 194.047211,172.990753 
z"/>
<path fill="#376C33" opacity="1.000000" stroke="none" 
	d="
M149.914017,412.967072 
	C142.028442,423.718994 131.177948,427.610779 118.160263,427.422821 
	C98.168755,427.134186 78.170357,427.349487 58.175079,427.287201 
	C33.675766,427.210938 20.510578,414.199036 20.369345,389.551849 
	C20.224220,364.225555 20.395462,338.897369 20.443869,313.570007 
	C20.469664,300.073364 20.403168,286.574951 20.601074,273.080597 
	C20.915388,251.648819 34.815601,237.933899 56.279350,237.835373 
	C78.607002,237.732880 100.935966,237.666107 123.263077,237.798706 
	C135.736038,237.872772 145.022614,243.449646 150.792145,253.701172 
	C150.670685,253.998520 150.619507,254.472305 150.405792,254.562958 
	C133.601791,261.691010 123.254372,276.285156 111.192993,288.794006 
	C95.930183,304.623077 81.159698,320.927002 66.185684,337.034302 
	C60.683002,342.953461 60.346348,350.311188 65.318832,355.280945 
	C70.224892,360.184326 77.011604,359.817566 82.463982,354.043549 
	C93.216415,342.656799 103.827278,331.136383 114.504929,319.678955 
	C124.841652,308.587372 135.205200,297.520782 145.527176,286.415497 
	C159.832748,271.024261 180.619965,269.884735 196.385742,283.822540 
	C202.499237,289.227234 208.197052,295.102203 214.312744,300.504242 
	C221.712479,307.040527 225.819305,306.780151 232.544113,299.411102 
	C273.875000,254.120773 315.150787,208.780197 356.456665,163.467041 
	C360.713409,158.797363 365.047577,154.198288 370.474243,148.350464 
	C368.463074,146.924210 366.460144,145.750214 364.746643,144.246429 
	C356.857422,137.322739 349.084259,130.266815 341.198059,123.339630 
	C336.479828,119.195183 333.579102,114.296165 335.443970,107.927589 
	C337.334412,101.471786 342.715210,99.225105 348.783325,98.236877 
	C389.070953,91.675812 429.357758,85.109795 469.650696,78.581444 
	C481.031982,76.737419 487.833405,82.735298 486.917603,94.272911 
	C484.584869,123.662483 481.978577,153.030273 479.516968,182.409729 
	C478.612976,193.198990 477.715271,203.990341 476.993469,214.792694 
	C476.580261,220.977478 475.050049,226.432648 468.715302,228.955429 
	C462.515106,231.424606 457.234741,229.109772 452.694397,224.930023 
	C442.778381,215.801559 432.990692,206.533722 422.673615,196.876358 
	C397.099670,225.068909 371.627533,253.149200 345.739014,281.678284 
	C336.895935,291.423218 328.469269,300.719391 320.042572,310.015564 
	C318.967163,311.079254 317.891724,312.142914 316.462097,313.647156 
	C315.681946,314.881683 315.255981,315.675629 314.562134,316.708313 
	C314.095642,318.304321 313.897064,319.661560 313.545807,321.461212 
	C313.532379,327.929382 313.671600,333.955139 313.661316,340.427551 
	C313.507599,358.588898 313.503326,376.303589 313.499054,394.018250 
	C313.367676,395.083801 313.236328,396.149384 313.060547,397.852722 
	C313.053070,398.657501 313.089996,398.824493 313.126923,398.991455 
	C307.029785,419.705475 296.766052,427.323730 274.967285,427.325226 
	C255.016144,427.326599 235.064880,427.383087 215.113922,427.324860 
	C195.553268,427.267761 185.053284,419.425018 179.084595,400.082092 
	C178.908966,399.330414 178.837875,399.173798 178.766800,399.017212 
	C178.758789,398.560211 178.750778,398.103210 178.666260,396.921051 
	C178.410599,393.791199 178.231476,391.386536 178.052353,388.981842 
	C178.085785,382.295105 178.119202,375.608398 178.155518,368.059479 
	C177.936218,361.243896 175.179291,359.087708 170.510010,361.215454 
	C170.510010,361.215454 170.390091,361.346527 170.033295,361.526550 
	C166.132584,365.476654 162.588654,369.246674 159.044739,373.016724 
	C157.947403,375.736542 156.850037,378.456329 155.714996,381.922485 
	C155.759430,385.121277 155.841537,387.573730 155.923645,390.026184 
	C155.577942,393.393219 155.232254,396.760254 154.714478,400.755798 
	C154.460419,401.928253 154.378448,402.472168 154.296509,403.016083 
	C154.146561,403.435089 153.996613,403.854126 153.595398,404.835480 
	C152.200760,407.920898 151.057388,410.444000 149.914017,412.967072 
z"/>
<path fill="#356B32" opacity="1.000000" stroke="none" 
	d="
M341.182678,321.068390 
	C341.744019,320.577637 342.305359,320.086914 343.250366,319.188293 
	C351.672485,309.828339 359.710876,300.876221 367.749268,291.924072 
	C368.175903,291.618103 368.602539,291.312103 369.625671,291.049866 
	C375.328796,293.815186 380.288818,296.871918 385.574493,299.184296 
	C394.864502,303.248535 403.682190,309.027893 414.562805,308.090668 
	C415.513672,308.008759 416.825562,308.720764 417.503021,309.480316 
	C419.812561,312.069489 421.826416,314.923126 424.148621,317.499664 
	C424.809753,318.233215 426.325378,318.942688 427.123962,318.678864 
	C430.870605,317.441101 434.553192,315.968414 438.146240,314.332764 
	C439.167694,313.867767 439.810730,312.571533 440.627289,311.656494 
	C439.361572,311.397644 438.104370,310.987640 436.828156,310.916168 
	C435.006104,310.814087 433.170135,310.995514 431.340179,310.993561 
	C425.019562,310.986816 425.088745,310.975311 424.975464,304.515503 
	C424.901184,300.278778 426.362274,295.544434 421.216248,292.864441 
	C423.015503,291.849579 424.399719,291.068787 426.458771,289.907379 
	C423.778259,286.835541 421.937012,283.224609 419.001740,281.639130 
	C409.670593,276.598969 399.931885,272.313477 390.350647,267.736359 
	C396.727600,260.598236 403.104523,253.460114 410.190033,246.172302 
	C424.016968,246.836807 434.602844,254.003250 445.677856,259.925171 
	C447.347290,260.817841 448.764771,262.259216 450.497925,262.938934 
	C454.090942,264.348053 457.794373,265.496735 461.504913,266.571136 
	C462.520782,266.865326 463.742371,266.628082 464.835663,266.438843 
	C467.215759,266.026886 469.574066,265.488831 471.941254,265.002289 
	C472.047028,273.484039 472.235016,281.965668 472.244019,290.447540 
	C472.279083,323.569641 472.419098,356.693329 472.109039,389.812592 
	C472.052734,395.824371 470.921234,402.142639 468.788635,407.749878 
	C464.839874,418.132324 456.534332,424.022675 445.124695,426.481812 
	C444.030670,426.772125 443.539795,426.959167 443.048950,427.146210 
	C442.277252,427.155060 441.505524,427.163879 439.918976,427.204773 
	C426.498535,427.264984 413.892792,427.265381 401.287384,427.330048 
	C391.186188,427.381836 381.085358,427.511627 370.984375,427.606812 
	C369.591553,427.398499 368.198761,427.190186 366.180756,426.864441 
	C365.030182,426.758087 364.504791,426.769165 363.979401,426.780273 
	C360.051086,425.172577 356.122742,423.564850 351.700684,421.608002 
	C350.474640,420.829895 349.742371,420.400940 349.010071,419.971985 
	C348.813019,419.704712 348.615997,419.437439 348.058167,418.784058 
	C345.165619,414.919342 342.633881,411.440765 340.102112,407.962158 
	C339.854980,407.140594 339.607819,406.319061 339.166504,404.918457 
	C338.742767,403.985992 338.513153,403.632507 338.283569,403.279053 
	C338.103943,402.070831 337.924316,400.862640 337.627380,399.079895 
	C337.331696,398.006378 337.153351,397.507324 336.975006,397.008301 
	C336.988953,396.252960 337.002930,395.497650 337.008118,393.912476 
	C336.935242,378.399841 336.871063,363.716980 336.891968,348.656189 
	C336.920624,347.509888 336.864197,346.741547 336.903320,345.515747 
	C336.961792,339.379456 336.924683,333.700623 337.032227,327.710175 
	C338.512146,325.288483 339.847412,323.178436 341.182678,321.068390 
M441.601440,323.746582 
	C435.996124,321.774780 438.739288,326.678040 436.662506,328.970673 
	C439.610748,328.799408 441.487335,328.690399 443.591034,328.568207 
	C442.895752,333.411499 441.319153,339.792694 447.378235,340.686707 
	C452.081818,341.380707 457.052490,344.903198 463.113922,339.568054 
	C470.113220,333.407440 468.126404,327.010223 468.120178,320.223022 
	C468.119232,319.187073 466.967010,318.152161 466.347260,317.116791 
	C465.454681,317.887329 464.558777,318.654053 463.670166,319.429108 
	C460.698822,322.020935 457.669525,322.025238 454.215302,320.169556 
	C451.419189,318.667480 452.504913,317.157379 453.554779,315.372803 
	C453.666534,315.182861 453.422699,314.783691 453.298523,314.308044 
	C452.091248,314.308044 450.851074,314.308044 449.717010,314.308044 
	C448.972626,316.170563 451.594818,321.291290 446.034576,317.590179 
	C446.579163,316.336853 447.139374,315.047516 447.699615,313.758179 
	C447.334137,313.387970 446.968658,313.017731 446.603180,312.647491 
	C444.696960,314.288452 442.790741,315.929413 440.721649,317.710602 
	C442.956238,319.899048 447.573425,321.084106 441.601440,323.746582 
M430.368805,304.915222 
	C430.118805,304.340027 429.868835,303.764862 429.618835,303.189667 
	C429.140717,303.669250 428.662567,304.148804 428.184448,304.628387 
	C428.758514,304.878967 429.332581,305.129578 430.368805,304.915222 
z"/>
<path fill="#356A32" opacity="1.000000" stroke="none" 
	d="
M266.841888,226.337036 
	C257.160980,237.161652 247.480087,247.986267 237.135162,258.892090 
	C233.120392,257.425110 229.903534,255.365036 226.388351,254.445572 
	C220.748642,252.970413 214.911469,252.250214 208.118698,251.023300 
	C212.878891,245.918808 209.770386,243.429459 206.789200,241.728287 
	C204.844742,240.618744 201.624588,239.976654 199.750061,240.828568 
	C192.809174,243.983032 185.805801,244.513382 178.487564,243.094391 
	C178.538803,228.380249 177.965729,213.624573 178.940750,198.971909 
	C179.345108,192.895218 183.059753,187.038803 185.718628,181.234177 
	C194.102692,185.915665 201.569000,192.255508 210.103989,194.462418 
	C218.535416,196.642563 225.918747,199.620361 232.393997,205.007568 
	C235.863449,207.894043 238.119064,212.559036 241.898926,214.686646 
	C249.872803,219.174942 258.489136,222.521835 266.841888,226.337036 
z"/>
<path fill="#346A32" opacity="1.000000" stroke="none" 
	d="
M206.035858,168.804626 
	C207.821167,168.536270 209.605713,168.040146 211.391907,168.034134 
	C233.953674,167.958160 256.515686,167.952835 279.529358,168.435379 
	C279.988647,172.726669 281.768982,174.800797 285.655273,175.040268 
	C286.586945,175.097687 287.602386,175.471069 288.385437,175.991058 
	C293.437531,179.345703 298.435852,182.781326 303.451782,186.190399 
	C296.724884,193.676407 289.997986,201.162415 282.622498,208.807190 
	C279.682709,207.025620 277.669983,204.117096 275.038361,203.360168 
	C270.512115,202.058289 266.907257,199.959427 263.894806,196.472061 
	C263.168762,195.631516 262.071075,194.980972 261.016388,194.576477 
	C253.942139,191.863159 246.924896,189.434311 239.020828,189.759811 
	C235.443420,189.907150 230.876068,188.411346 228.302231,186.007401 
	C222.415085,180.508850 216.536209,175.431931 208.691818,172.976105 
	C206.997345,172.445633 205.571213,171.058121 204.277527,170.031372 
	C205.034332,169.599792 205.535095,169.202209 206.035858,168.804626 
z"/>
<path fill="#386E33" opacity="1.000000" stroke="none" 
	d="
M204.021469,170.065384 
	C205.571213,171.058121 206.997345,172.445633 208.691818,172.976105 
	C216.536209,175.431931 222.415085,180.508850 228.302231,186.007401 
	C230.876068,188.411346 235.443420,189.907150 239.020828,189.759811 
	C246.924896,189.434311 253.942139,191.863159 261.016388,194.576477 
	C262.071075,194.980972 263.168762,195.631516 263.894806,196.472061 
	C266.907257,199.959427 270.512115,202.058289 275.038361,203.360168 
	C277.669983,204.117096 279.682709,207.025620 282.317902,208.976990 
	C277.573395,214.687469 272.484894,220.386932 267.119141,226.211731 
	C258.489136,222.521835 249.872803,219.174942 241.898926,214.686646 
	C238.119064,212.559036 235.863449,207.894043 232.393997,205.007568 
	C225.918747,199.620361 218.535416,196.642563 210.103989,194.462418 
	C201.569000,192.255508 194.102692,185.915665 186.020676,181.058182 
	C185.805969,180.429031 185.892776,180.181870 186.762238,179.957306 
	C190.715363,178.601746 194.068985,177.340790 197.311569,175.839951 
	C197.586990,175.712479 197.121368,173.983932 196.981720,172.670731 
	C196.933441,172.125061 196.903442,171.907822 196.873428,171.690582 
	C198.029327,171.112000 199.185226,170.533401 200.777649,170.147339 
	C201.444763,170.140656 201.675339,169.941452 201.905914,169.742249 
	C202.420990,169.504288 202.936050,169.266312 203.725052,169.316162 
	C203.998993,169.603958 204.021469,170.065384 204.021469,170.065384 
z"/>
<path fill="#376D33" opacity="1.000000" stroke="none" 
	d="
M390.074890,267.879700 
	C399.931885,272.313477 409.670593,276.598969 419.001740,281.639130 
	C421.937012,283.224609 423.778259,286.835541 426.458771,289.907379 
	C424.399719,291.068787 423.015503,291.849579 421.216248,292.864441 
	C426.362274,295.544434 424.901184,300.278778 424.975464,304.515503 
	C425.088745,310.975311 425.019562,310.986816 431.340179,310.993561 
	C433.170135,310.995514 435.006104,310.814087 436.828156,310.916168 
	C438.104370,310.987640 439.361572,311.397644 440.627289,311.656494 
	C439.810730,312.571533 439.167694,313.867767 438.146240,314.332764 
	C434.553192,315.968414 430.870605,317.441101 427.123962,318.678864 
	C426.325378,318.942688 424.809753,318.233215 424.148621,317.499664 
	C421.826416,314.923126 419.812561,312.069489 417.503021,309.480316 
	C416.825562,308.720764 415.513672,308.008759 414.562805,308.090668 
	C403.682190,309.027893 394.864502,303.248535 385.574493,299.184296 
	C380.288818,296.871918 375.328796,293.815186 369.869751,290.943909 
	C376.277985,283.203796 383.038574,275.613434 390.074890,267.879700 
z"/>
<path fill="#FEFEFE" opacity="1.000000" stroke="none" 
	d="
M336.807770,345.973206 
	C336.864197,346.741547 336.920624,347.509888 336.660095,348.895599 
	C335.895416,351.008667 335.447723,352.504333 335.000000,354.000000 
	C330.252289,354.433655 326.167938,353.208405 322.327667,350.147888 
	C320.821686,348.947693 318.050201,349.335449 315.427490,348.569244 
	C314.603546,345.419281 314.207153,342.700104 313.810791,339.980896 
	C313.671600,333.955139 313.532379,327.929382 313.856140,321.295807 
	C314.489410,319.281830 314.659698,317.875702 314.830017,316.469543 
	C315.255981,315.675629 315.681946,314.881683 316.351685,313.958099 
	C319.641632,313.751984 322.727112,313.336609 325.723999,313.684418 
	C329.501862,314.122894 333.356781,314.796997 336.876038,316.153870 
	C338.447510,316.759735 339.281769,319.277832 340.816650,320.998230 
	C339.847412,323.178436 338.512146,325.288483 336.757660,328.018829 
	C336.494873,334.417145 336.651306,340.195190 336.807770,345.973206 
z"/>
<path fill="#3E7239" opacity="1.000000" stroke="none" 
	d="
M178.383118,243.498810 
	C185.805801,244.513382 192.809174,243.983032 199.750061,240.828568 
	C201.624588,239.976654 204.844742,240.618744 206.789200,241.728287 
	C209.770386,243.429459 212.878891,245.918808 208.118698,251.023300 
	C214.911469,252.250214 220.748642,252.970413 226.388351,254.445572 
	C229.903534,255.365036 233.120392,257.425110 236.835297,259.028870 
	C232.473206,264.603638 227.746948,270.122864 222.614883,276.115967 
	C220.297058,273.888031 218.273895,272.030548 216.347839,270.077301 
	C206.735184,260.328888 195.193481,254.244049 181.751129,251.710815 
	C180.799637,251.531509 179.895844,251.099045 179.069534,250.302933 
	C178.951279,249.518082 178.733383,249.214569 178.515488,248.911057 
	C178.436554,247.241776 178.357605,245.572495 178.383118,243.498810 
z"/>
<path fill="#3D7037" opacity="1.000000" stroke="none" 
	d="
M472.039368,264.547668 
	C469.574066,265.488831 467.215759,266.026886 464.835663,266.438843 
	C463.742371,266.628082 462.520782,266.865326 461.504913,266.571136 
	C457.794373,265.496735 454.090942,264.348053 450.497925,262.938934 
	C448.764771,262.259216 447.347290,260.817841 445.677856,259.925171 
	C434.602844,254.003250 424.016968,246.836807 410.492432,246.025970 
	C414.632996,240.813156 419.179779,235.597000 423.972565,230.098587 
	C437.655334,243.045425 449.990265,257.881805 472.137451,252.857407 
	C472.137451,256.865509 472.137451,260.479279 472.039368,264.547668 
z"/>
<path fill="#42733E" opacity="1.000000" stroke="none" 
	d="
M303.747925,186.053284 
	C298.435852,182.781326 293.437531,179.345703 288.385437,175.991058 
	C287.602386,175.471069 286.586945,175.097687 285.655273,175.040268 
	C281.768982,174.800797 279.988647,172.726669 279.983643,168.555603 
	C290.488739,167.525436 298.652039,172.146423 305.659363,179.478088 
	C308.633301,182.589706 305.545837,184.015625 303.747925,186.053284 
z"/>
<path fill="#F5FAF5" opacity="1.000000" stroke="none" 
	d="
M334.995972,354.368530 
	C335.447723,352.504333 335.895416,351.008667 336.575012,349.273560 
	C336.871063,363.716980 336.935242,378.399841 336.912842,393.544769 
	C334.556519,388.862549 329.762970,383.219238 330.656464,378.700348 
	C331.771179,373.062347 332.615265,368.382568 330.326416,363.064911 
	C329.940796,362.168976 331.797089,360.310883 332.612457,358.894379 
	C333.409027,357.510559 334.199005,356.123016 334.995972,354.368530 
z"/>
<path fill="#F5FAF5" opacity="1.000000" stroke="none" 
	d="
M371.151123,427.941528 
	C381.085358,427.511627 391.186188,427.381836 401.287384,427.330048 
	C413.892792,427.265381 426.498535,427.264984 439.559631,427.355957 
	C438.427826,427.983124 436.843414,428.921844 435.252686,428.932678 
	C419.196655,429.042175 403.139191,429.058075 387.082916,428.966766 
	C381.826782,428.936890 376.572845,428.517517 371.151123,427.941528 
z"/>
<path fill="#F5FAF5" opacity="1.000000" stroke="none" 
	d="
M367.399170,291.946289 
	C359.710876,300.876221 351.672485,309.828339 343.325836,318.912292 
	C344.501434,315.703613 345.949524,312.346466 347.492981,309.033722 
	C347.903076,308.153595 349.069031,307.427368 349.100311,306.600647 
	C349.327179,300.604309 354.246979,299.957672 358.253967,297.959015 
	C361.399170,296.390228 364.132660,293.996002 367.399170,291.946289 
z"/>
<path fill="#F5FAF5" opacity="1.000000" stroke="none" 
	d="
M320.408691,310.011536 
	C328.469269,300.719391 336.895935,291.423218 345.633148,281.993103 
	C344.147614,285.793152 343.162842,290.471344 340.382355,293.502197 
	C335.019287,299.348267 328.654572,304.278381 322.658264,309.534729 
	C322.225098,309.914398 321.411530,309.860077 320.408691,310.011536 
z"/>
<path fill="#F5FAF5" opacity="1.000000" stroke="none" 
	d="
M313.661316,340.427551 
	C314.207153,342.700104 314.603546,345.419281 315.001160,348.569244 
	C315.002411,353.166656 314.878784,357.337830 315.031769,361.498871 
	C315.252502,367.503265 316.007935,373.506104 315.903687,379.498627 
	C315.820984,384.252808 314.790314,388.990448 313.839813,393.876831 
	C313.503326,376.303589 313.507599,358.588898 313.661316,340.427551 
z"/>
<path fill="#3C7037" opacity="1.000000" stroke="none" 
	d="
M197.000000,172.999176 
	C197.121368,173.983932 197.586990,175.712479 197.311569,175.839951 
	C194.068985,177.340790 190.715363,178.601746 186.954468,179.883820 
	C189.027695,177.558090 191.537445,175.274414 194.760254,172.980377 
	C195.982208,172.979736 196.491104,172.989456 197.000000,172.999176 
z"/>
<path fill="#F5FAF5" opacity="1.000000" stroke="none" 
	d="
M339.817871,408.179840 
	C342.633881,411.440765 345.165619,414.919342 347.811096,418.712585 
	C341.781616,418.456726 339.666595,415.777496 339.817871,408.179840 
z"/>
<path fill="#F3F9F3" opacity="1.000000" stroke="none" 
	d="
M159.409851,373.014130 
	C162.588654,369.246674 166.132584,365.476654 169.962006,361.579559 
	C170.830307,364.581665 170.339096,366.894379 166.851685,368.301331 
	C164.278214,369.339569 162.118851,371.404236 159.409851,373.014130 
z"/>
<path fill="#F3F9F3" opacity="1.000000" stroke="none" 
	d="
M170.849045,361.451019 
	C175.179291,359.087708 177.936218,361.243896 178.057831,367.599823 
	C175.700836,365.897095 173.444458,363.791840 170.849045,361.451019 
z"/>
<path fill="#F3F9F3" opacity="1.000000" stroke="none" 
	d="
M150.273712,412.944214 
	C151.057388,410.444000 152.200760,407.920898 153.594696,405.171204 
	C156.561356,409.128265 153.124969,410.834595 150.273712,412.944214 
z"/>
<path fill="#F3F9F3" opacity="1.000000" stroke="none" 
	d="
M177.762985,389.239807 
	C178.231476,391.386536 178.410599,393.791199 178.514008,396.610565 
	C178.116745,394.516083 177.795181,392.006927 177.762985,389.239807 
z"/>
<path fill="#F3F9F3" opacity="1.000000" stroke="none" 
	d="
M156.219543,389.765320 
	C155.841537,387.573730 155.759430,385.121277 155.813141,382.326294 
	C156.137802,384.490631 156.326614,386.997528 156.219543,389.765320 
z"/>
<path fill="#F5FAF5" opacity="1.000000" stroke="none" 
	d="
M336.764343,397.140594 
	C337.153351,397.507324 337.331696,398.006378 337.436584,398.764709 
	C337.093323,398.440308 336.823517,397.856598 336.764343,397.140594 
z"/>
<path fill="#F3F9F3" opacity="1.000000" stroke="none" 
	d="
M154.570602,402.969238 
	C154.378448,402.472168 154.460419,401.928253 154.738159,401.182007 
	C154.904175,401.627258 154.874435,402.274811 154.570602,402.969238 
z"/>
<path fill="#F5FAF5" opacity="1.000000" stroke="none" 
	d="
M349.067963,420.336212 
	C349.742371,420.400940 350.474640,420.829895 351.373962,421.539673 
	C350.735962,421.447144 349.930908,421.073822 349.067963,420.336212 
z"/>
<path fill="#F5FAF5" opacity="1.000000" stroke="none" 
	d="
M364.062653,427.001953 
	C364.504791,426.769165 365.030182,426.758087 365.759888,426.929626 
	C365.358124,427.149414 364.752014,427.186523 364.062653,427.001953 
z"/>
<path fill="#F5FAF5" opacity="1.000000" stroke="none" 
	d="
M443.176819,427.340393 
	C443.539795,426.959167 444.030670,426.772125 444.771606,426.695709 
	C444.449341,427.049072 443.877045,427.291809 443.176819,427.340393 
z"/>
<path fill="#42733E" opacity="1.000000" stroke="none" 
	d="
M204.277527,170.031372 
	C204.021469,170.065384 203.998993,169.603958 204.012253,169.373352 
	C204.526276,168.951492 205.027054,168.760223 205.781830,168.686798 
	C205.535095,169.202209 205.034332,169.599792 204.277527,170.031372 
z"/>
<path fill="#42733E" opacity="1.000000" stroke="none" 
	d="
M196.981720,172.670731 
	C196.491104,172.989456 195.982208,172.979736 195.092346,172.928497 
	C195.216049,172.505463 195.720734,172.123947 196.549408,171.716492 
	C196.903442,171.907822 196.933441,172.125061 196.981720,172.670731 
z"/>
<path fill="#F5FAF5" opacity="1.000000" stroke="none" 
	d="
M313.278748,398.909729 
	C313.089996,398.824493 313.053070,398.657501 313.115356,398.254028 
	C313.347229,398.191132 313.499634,398.354431 313.599213,398.545288 
	C313.625854,398.596313 313.491180,398.731506 313.278748,398.909729 
z"/>
<path fill="#F3F9F3" opacity="1.000000" stroke="none" 
	d="
M178.629608,399.121460 
	C178.837875,399.173798 178.908966,399.330414 178.931458,399.740417 
	C178.752701,399.737762 178.622543,399.481750 178.629608,399.121460 
z"/>
<path fill="#F5FAF5" opacity="1.000000" stroke="none" 
	d="
M338.258270,403.607697 
	C338.513153,403.632507 338.742767,403.985992 338.959534,404.665985 
	C338.708832,404.640472 338.470886,404.288391 338.258270,403.607697 
z"/>
<path fill="#356A32" opacity="1.000000" stroke="none" 
	d="
M178.455597,249.225037 
	C178.733383,249.214569 178.951279,249.518082 178.961151,249.945312 
	C178.633987,249.892380 178.514862,249.715683 178.455597,249.225037 
z"/>
<path fill="#42733E" opacity="1.000000" stroke="none" 
	d="
M201.650665,169.708282 
	C201.675339,169.941452 201.444763,170.140656 201.106857,170.171783 
	C201.131500,169.893890 201.263458,169.784088 201.650665,169.708282 
z"/>
<path fill="#F5FAF5" opacity="1.000000" stroke="none" 
	d="
M314.562134,316.708313 
	C314.659698,317.875702 314.489410,319.281830 314.008789,320.853394 
	C313.897064,319.661560 314.095642,318.304321 314.562134,316.708313 
z"/>
<path fill="#376D33" opacity="1.000000" stroke="none" 
	d="
M441.963135,323.807556 
	C447.573425,321.084106 442.956238,319.899048 440.721649,317.710602 
	C442.790741,315.929413 444.696960,314.288452 446.603180,312.647491 
	C446.968658,313.017731 447.334137,313.387970 447.699615,313.758179 
	C447.139374,315.047516 446.579163,316.336853 446.034576,317.590179 
	C451.594818,321.291290 448.972626,316.170563 449.717010,314.308044 
	C450.851074,314.308044 452.091248,314.308044 453.298523,314.308044 
	C453.422699,314.783691 453.666534,315.182861 453.554779,315.372803 
	C452.504913,317.157379 451.419189,318.667480 454.215302,320.169556 
	C457.669525,322.025238 460.698822,322.020935 463.670166,319.429108 
	C464.558777,318.654053 465.454681,317.887329 466.347260,317.116791 
	C466.967010,318.152161 468.119232,319.187073 468.120178,320.223022 
	C468.126404,327.010223 470.113220,333.407440 463.113922,339.568054 
	C457.052490,344.903198 452.081818,341.380707 447.378235,340.686707 
	C441.319153,339.792694 442.895752,333.411499 443.591034,328.568207 
	C441.487335,328.690399 439.610748,328.799408 436.662506,328.970673 
	C438.739288,326.678040 435.996124,321.774780 441.963135,323.807556 
z"/>
<path fill="#F5FAF5" opacity="1.000000" stroke="none" 
	d="
M336.903320,345.515747 
	C336.651306,340.195190 336.494873,334.417145 336.613037,328.330475 
	C336.924683,333.700623 336.961792,339.379456 336.903320,345.515747 
z"/>
<path fill="#376D33" opacity="1.000000" stroke="none" 
	d="
M430.137726,305.147705 
	C429.332581,305.129578 428.758514,304.878967 428.184448,304.628387 
	C428.662567,304.148804 429.140717,303.669250 429.618835,303.189667 
	C429.868835,303.764862 430.118805,304.340027 430.137726,305.147705 
z"/>
</svg>